# Blender v2.74 (sub 0) OBJ File: ''
# www.blender.org
mtllib hex.mtl
o Circle
v -0.058082 -0.029503 0.520319
v -0.441095 -0.029503 0.299187
v 0.424930 -0.029503 0.299187
v 0.041918 -0.029503 0.520319
v -0.491095 -0.029503 -0.229681
v -0.491095 -0.029503 0.212584
v 0.374930 -0.029503 -0.229681
v -0.008082 -0.029503 -0.450813
v -0.391095 -0.029503 -0.229681
v -0.391095 -0.029503 0.212584
v -0.008082 -0.029503 0.433717
v 0.374930 -0.029503 0.212584
v 0.474930 -0.029503 -0.229681
v 0.474930 -0.029503 0.212584
v -0.441095 -0.029503 -0.316283
v -0.058082 -0.029503 -0.537416
v 0.041918 -0.029503 -0.537416
v 0.424930 -0.029503 -0.316283
v 0.474930 -0.029503 -0.229681
v 0.474930 -0.029503 0.212584
v 0.374930 -0.029503 -0.229681
v -0.008082 -0.029503 -0.450813
v -0.391095 -0.029503 -0.229681
v -0.058082 -0.029503 -0.537416
v 0.041918 -0.029503 -0.537416
v -0.441095 -0.029503 0.299187
v -0.391095 -0.029503 0.212584
v -0.008082 -0.029503 0.433717
v 0.374930 -0.029503 0.212584
v -0.491095 -0.029503 -0.229681
v -0.441095 -0.029503 -0.316283
v -0.058082 -0.029503 0.520319
v 0.424930 -0.029503 -0.316283
v 0.424930 -0.029503 0.299187
v 0.041918 -0.029503 0.520319
v -0.491095 -0.029503 0.212584
v 0.474930 0.970497 -0.229681
v 0.474930 0.970497 0.212584
v 0.374930 1.021340 -0.229681
v -0.008082 1.021340 -0.450813
v -0.391095 1.021340 -0.229681
v -0.058082 0.970497 -0.537416
v 0.041918 0.970497 -0.537416
v -0.441095 0.970497 0.299187
v -0.391095 1.021340 0.212584
v -0.008082 1.021340 0.433717
v 0.374930 1.021340 0.212584
v -0.491095 0.970497 -0.229681
v -0.441095 0.970497 -0.316283
v -0.058082 0.970497 0.520319
v 0.424930 0.970497 -0.316283
v 0.424930 0.970497 0.299187
v 0.041918 0.970497 0.520319
v -0.491095 0.970497 0.212584
vn 0.000000 -1.000000 0.000000
vn -0.500000 0.000000 0.866000
vn 0.000000 0.000000 1.000000
vn -0.500000 0.000000 -0.866000
vn -0.866000 0.000000 -0.500000
vn 1.000000 0.000000 0.000000
vn 0.000000 0.000000 -1.000000
vn 0.500000 0.000000 -0.866000
vn -0.866000 0.000000 0.500000
vn 0.866000 0.000000 -0.500000
vn -1.000000 0.000000 0.000000
vn 0.226600 0.891400 0.392500
vn 0.000000 0.862400 0.506300
vn 0.000000 0.862400 -0.506300
vn 0.226600 0.891400 -0.392500
vn -0.226600 0.891400 -0.392500
vn -0.438500 0.862400 -0.253100
vn -0.453200 0.891400 0.000000
vn -0.438500 0.862400 0.253100
vn -0.226600 0.891400 0.392500
vn 0.438500 0.862400 -0.253100
vn 0.453200 0.891400 0.000000
vn 0.438500 0.862400 0.253100
vn 0.500000 0.000000 0.866000
vn 0.866000 0.000000 0.500000
vn 0.000000 1.000000 0.000000
usemtl None
s off
f 4//1 11//1 12//1
f 4//1 1//1 11//1
f 17//1 8//1 16//1
f 18//1 7//1 8//1
f 9//1 15//1 16//1
f 9//1 5//1 15//1
f 10//1 6//1 5//1
f 10//1 2//1 6//1
f 11//1 1//1 2//1
f 13//1 7//1 18//1
f 14//1 12//1 7//1
f 14//1 3//1 12//1
f 32//2 50//2 44//2
f 35//3 53//3 50//3
f 28//4 46//4 47//4
f 30//5 48//5 49//5
f 23//6 41//6 45//6
f 24//7 42//7 43//7
f 27//8 45//8 46//8
f 25//8 43//8 51//8
f 26//9 44//9 54//9
f 33//10 51//10 37//10
f 29//11 47//11 39//11
f 21//2 39//2 40//2
f 16//3 15//3 31//3
f 8//3 7//3 21//3
f 7//3 12//3 29//3
f 13//3 18//3 33//3
f 6//3 2//3 26//3
f 18//3 17//3 25//3
f 11//3 10//3 27//3
f 17//3 16//3 24//3
f 10//3 9//3 23//3
f 15//3 5//3 30//3
f 12//3 11//3 28//3
f 1//3 4//3 35//3
f 2//3 1//3 32//3
f 9//3 8//3 22//3
f 4//3 3//3 34//3
f 3//3 14//3 20//3
f 14//3 13//3 19//3
f 5//3 6//3 36//3
f 47//12 46//12 53//12
f 53//13 46//13 50//13
f 43//14 42//14 40//14
f 40//15 39//15 51//15
f 42//16 49//16 41//16
f 41//17 49//17 48//17
f 48//18 54//18 45//18
f 45//19 54//19 44//19
f 44//20 50//20 46//20
f 37//21 51//21 39//21
f 39//22 47//22 38//22
f 38//23 47//23 52//23
f 22//24 40//24 41//24
f 34//24 52//24 53//24
f 20//25 38//25 52//25
f 19//6 37//6 38//6
f 36//11 54//11 48//11
f 31//4 49//4 42//4
f 40//26 45//26 47//26
f 3//1 4//1 12//1
f 17//1 18//1 8//1
f 8//1 9//1 16//1
f 9//1 10//1 5//1
f 10//1 11//1 2//1
f 13//1 14//1 7//1
f 26//2 32//2 44//2
f 32//3 35//3 50//3
f 29//4 28//4 47//4
f 31//5 30//5 49//5
f 27//6 23//6 45//6
f 25//7 24//7 43//7
f 28//8 27//8 46//8
f 33//8 25//8 51//8
f 36//9 26//9 54//9
f 19//10 33//10 37//10
f 21//11 29//11 39//11
f 22//2 21//2 40//2
f 24//3 16//3 31//3
f 22//3 8//3 21//3
f 21//3 7//3 29//3
f 19//3 13//3 33//3
f 36//3 6//3 26//3
f 33//3 18//3 25//3
f 28//3 11//3 27//3
f 25//3 17//3 24//3
f 27//3 10//3 23//3
f 31//3 15//3 30//3
f 29//3 12//3 28//3
f 32//3 1//3 35//3
f 26//3 2//3 32//3
f 23//3 9//3 22//3
f 35//3 4//3 34//3
f 34//3 3//3 20//3
f 20//3 14//3 19//3
f 30//3 5//3 36//3
f 52//12 47//12 53//12
f 43//15 40//15 51//15
f 40//16 42//16 41//16
f 41//18 48//18 45//18
f 45//20 44//20 46//20
f 37//22 39//22 38//22
f 23//24 22//24 41//24
f 35//24 34//24 53//24
f 34//25 20//25 52//25
f 20//6 19//6 38//6
f 30//11 36//11 48//11
f 24//4 31//4 42//4
f 45//26 40//26 41//26
f 47//26 45//26 46//26
f 40//26 47//26 39//26
