# Blender v2.79 (sub 0) OBJ File: 'uni_cube.blend'
# www.blender.org
mtllib uni_cube.mtl
o Cube
v 0.250000 -0.250000 -0.250000
v 0.250000 -0.250000 0.250000
v -0.250000 -0.250000 0.250000
v -0.250000 -0.250000 -0.250000
v 0.250000 0.250000 -0.250000
v 0.250000 0.250000 0.250000
v -0.250000 0.250000 0.250000
v -0.250000 0.250000 -0.250000
vn -0.0000 -0.0000 1.0000
vn 0.0000 0.0000 -1.0000
vn 1.0000 -0.0000 0.0000
vn -1.0000 -0.0000 -0.0000
vn 0.0000 -1.0000 0.0000
vn 0.0000 1.0000 0.0000
usemtl Material.001
s off
f 6//1 3//1 2//1
f 1//2 8//2 5//2
f 6//1 7//1 3//1
f 1//2 4//2 8//2
usemtl Material.002
f 5//3 2//3 1//3
f 7//4 4//4 3//4
f 5//3 6//3 2//3
f 7//4 8//4 4//4
usemtl Material.003
f 2//5 4//5 1//5
f 8//6 6//6 5//6
f 2//5 3//5 4//5
f 8//6 7//6 6//6
