v 0.500000 -0.500000 -0.500000
v 0.500000 -0.500000 0.500000
v -0.500000 -0.500000 0.500000
v -0.500000 -0.500000 -0.500000
v 0.500000 0.500000 -0.500000
v 0.500000 0.500000 0.500000
v -0.500000 0.500000 0.500000
v -0.500000 0.500000 -0.500000
vt 1 1
vt 0 1
vt 0 0
vt 1 0
vt 1 1
vt 1 0
vt 1 0
vt 1 1
vt 0 1
vt 0 0
vn 0.000000 -1.000000 0.000000
vn 0.000000 1.000000 0.000000
vn 1.000000 0.000000 0.000000
vn -0.000000 -0.000000 1.000000
vn -1.000000 -0.000000 -0.000000
vn 0.000000 0.000000 -1.000000
f 1/1/1 2/2/1 3/3/1 4/4/1
f 5/5/2 8/2/2 7/3/2 6/6/2
f 1/4/3 5/1/3 6/2/3 2/3/3
f 2/4/4 6/1/4 7/2/4 3/3/4
f 3/7/5 7/8/5 8/9/5 4/10/5
f 5/2/6 1/3/6 4/4/6 8/1/6